<svg xmlns="http://www.w3.org/2000/svg" width="184" height="69" viewBox="0 0 184 69"><rect width="100%" height="100%" fill="#DDDDDD"/><path fill="#999999" d="M47.135 42.035h3.64v2.59h-11.2v-2.59h4.1v-11.8q0-.7.04-1.44l-2.91 2.43q-.25.2-.5.25-.24.05-.46 0-.22-.04-.39-.14-.16-.11-.25-.23l-1.09-1.5 6.17-5.25h2.85zm13.51.11q.85 0 1.49-.24.65-.25 1.09-.68.44-.44.66-1.04.23-.6.23-1.3 0-1.67-.93-2.52-.92-.85-2.54-.85-1.63 0-2.55.85-.93.85-.93 2.52 0 .7.23 1.3.22.6.66 1.04.44.43 1.09.68.64.24 1.5.24m0-15.38q-.77 0-1.33.23-.56.24-.94.64-.37.4-.54.92-.18.52-.18 1.09 0 .6.15 1.17t.5 1.01.92.7q.58.27 1.42.27t1.41-.27q.57-.26.92-.7t.5-1.01.15-1.17q0-.57-.18-1.09-.19-.52-.55-.92t-.92-.64q-.56-.23-1.33-.23m3.41 7.3q1.85.61 2.73 1.85.88 1.23.88 3.03 0 1.34-.51 2.43t-1.43 1.86q-.93.77-2.22 1.19-1.3.42-2.86.42-1.57 0-2.87-.42-1.29-.42-2.22-1.19-.92-.77-1.43-1.86t-.51-2.43q0-1.8.88-3.03.88-1.24 2.73-1.85-1.47-.61-2.21-1.75-.73-1.13-.73-2.73 0-1.14.47-2.14.47-.99 1.31-1.73.84-.73 2.01-1.14 1.17-.42 2.57-.42t2.56.42q1.17.41 2.01 1.14.84.74 1.31 1.73.47 1 .47 2.14 0 1.6-.73 2.73-.74 1.14-2.21 1.75m8.51 2.93h6.16v-6.62q0-.94.13-2.07zm9.17 0h2.55v2q0 .28-.18.48-.18.21-.52.21h-1.85v4.94h-3.01v-4.94h-8.54q-.35 0-.61-.22-.27-.22-.34-.54l-.36-1.75 9.59-12.81h3.27zm24.8 3-1.84 1.8-4.74-4.74-4.79 4.77-1.83-1.81 4.78-4.8-4.56-4.56 1.82-1.82 4.56 4.56 4.54-4.53 1.85 1.82-4.55 4.55zm21.63-15.61-6.01 7.35-.7.86q.59-.29 1.27-.45t1.46-.16q1.15 0 2.23.38 1.09.37 1.92 1.14.82.76 1.33 1.89.5 1.14.5 2.65 0 1.41-.52 2.65t-1.45 2.17q-.94.92-2.26 1.45-1.33.53-2.92.53-1.63 0-2.92-.51-1.28-.52-2.19-1.45t-1.4-2.24q-.48-1.31-.48-2.91 0-1.43.58-2.93.58-1.51 1.8-3.13l4.83-6.48q.25-.34.73-.58.49-.23 1.12-.23zm-5.22 17.64q.82 0 1.52-.28.69-.28 1.18-.79.5-.5.78-1.18t.28-1.48q0-.87-.26-1.56-.27-.69-.76-1.17-.49-.49-1.18-.74-.68-.25-1.51-.25-.82 0-1.5.28-.67.28-1.14.77-.48.5-.75 1.18-.26.68-.26 1.46 0 .84.23 1.54.23.69.68 1.18.46.49 1.13.76.67.28 1.56.28m12.76-11.57q0 1.7.88 2.58.87.89 2.48.89.84 0 1.5-.26.66-.27 1.11-.73t.68-1.09.23-1.36q0-.83-.25-1.48-.26-.65-.72-1.1-.46-.44-1.1-.68-.63-.24-1.39-.24-.78 0-1.41.26t-1.08.72-.69 1.1-.24 1.39m-1.69 14.17 6.29-7.85q.23-.3.44-.58t.41-.56q-.7.45-1.54.68t-1.76.23q-1.05 0-2.06-.36-1.01-.37-1.79-1.1-.79-.74-1.27-1.82-.48-1.09-.48-2.54 0-1.36.5-2.55t1.41-2.09q.91-.89 2.19-1.41 1.27-.52 2.81-.52 1.56 0 2.8.49 1.23.49 2.11 1.37.87.89 1.34 2.12t.47 2.7q0 .94-.16 1.78t-.45 1.62q-.3.77-.72 1.51-.42.75-.94 1.47l-4.63 6.61q-.24.34-.71.57-.48.23-1.08.23z"/></svg>